#!OML:ASF F:\twosubjects\two\wednesday\Session 1\rory1.ASF
:FULLY-SPECIFIED
:DEGREES
227
root 17.2012 18.2162 21.5929 4.6969 10.9055 3.03328
lowerback -0.190264 -1.29051 -1.65779
upperback -1.22042 -1.72548 0.339806
thorax -1.08369 -0.844405 1.28866
lowerneck -10.0231 -5.51815 -4.68737
upperneck 13.457 -7.0809 2.29273
head 5.97188 -3.50789 0.901831
rclavicle -3.36692e-014 -7.55382e-015
rhumerus 6.93922 -12.0002 -80.0413
rradius 39.6521
rwrist -14.2158
rhand -15.9467 30.8755
rfingers 7.12502
rthumb 10.2516 1.14534
lclavicle -3.36692e-014 -7.55382e-015
lhumerus -51.7545 30.1514 61.7889
lradius 12.4199
lwrist -10.312
lhand -18.0609 19.3102
lfingers 7.12502
lthumb 8.21153 49.1306
rfemur -37.7659 8.93493 13.313
rtibia 33.5068
rfoot 0.228478 -5.64376
rtoes 3.03864
lfemur 12.8365 1.72574 -20.9204
ltibia 31.6546
lfoot 5.53322 1.30788
ltoes -29.6591
228
root 17.1893 18.2216 21.7737 4.42332 9.79547 2.86411
lowerback 0.120579 -0.983937 -1.58648
upperback -0.986469 -1.31928 0.431335
thorax -1.03161 -0.643652 1.3434
lowerneck -9.97208 -5.42983 -4.7332
upperneck 12.5998 -6.97153 2.53045
head 5.69951 -3.44091 1.00527
rclavicle -7.82715e-015 -1.11319e-014
rhumerus 6.03425 -12.0596 -80.2617
rradius 39.1559
rwrist -14.23
rhand -16.2988 31.3248
rfingers 7.12502
rthumb 9.91192 1.5781
lclavicle -7.82715e-015 -1.11319e-014
lhumerus -51.1832 32.1385 61.2642
lradius 12.2511
lwrist -12.4129
lhand -17.6216 19.8571
lfingers 7.12502
lthumb 8.63547 49.6605
rfemur -37.5945 9.52273 13.8916
rtibia 34.4945
rfoot -0.734752 -5.03526
rtoes 4.00701
lfemur 11.8094 2.44419 -20.7106
ltibia 34.3913
lfoot 7.24614 1.66298
ltoes -28.8347
229
root 17.1657 18.2331 21.9727 4.17666 8.65967 3.24408
lowerback 0.140993 -0.6788 -2.28419
upperback -0.697206 -0.915222 0.408548
thorax -0.750724 -0.441889 1.70551
lowerneck -9.59841 -5.29884 -4.71363
upperneck 11.5768 -6.81919 2.73741
head 5.31727 -3.35643 1.102
rclavicle 5.34234e-015 -1.15295e-014
rhumerus 4.79151 -11.7428 -80.2702
rradius 38.9096
rwrist -14.6939
rhand -16.8513 31.018
rfingers 7.12502
rthumb 9.37878 1.24666
lclavicle 5.34234e-015 -1.15295e-014
lhumerus -50.1163 33.1689 61.8731
lradius 12.2521
lwrist -13.6623
lhand -18.1181 21.0409
lfingers 7.12502
lthumb 8.15636 50.8635
rfemur -37.3663 10.4946 13.787
rtibia 35.4463
rfoot -1.51266 -4.76352
rtoes 5.45669
lfemur 10.7762 3.02573 -21.1261
ltibia 37.1255
lfoot 9.28183 2.12553
ltoes -26.1308
230
root 17.1434 18.253 22.1484 4.00185 8.15996 3.65514
lowerback -0.0139875 -0.544422 -2.94456
upperback -0.181584 -0.727928 0.378693
thorax -0.136651 -0.359769 2.03906
lowerneck -9.55983 -5.26767 -4.71057
upperneck 10.4998 -6.79107 3.03533
head 4.98522 -3.32478 1.20994
rclavicle 8.84592e-015 2.62396e-014
rhumerus 3.89729 -11.9999 -80.4323
rradius 38.7384
rwrist -14.9984
rhand -17.2466 30.8174
rfingers 7.12502
rthumb 8.99736 1.02926
lclavicle 8.84592e-015 2.62396e-014
lhumerus -48.0123 33.7608 63.579
lradius 12.1986
lwrist -13.6638
lhand -18.3764 21.4677
lfingers 7.12502
lthumb 7.90703 51.2998
rfemur -37.084 10.8066 13.7292
rtibia 36.294
rfoot -1.85521 -4.71446
rtoes 8.27488
lfemur 9.35081 2.95451 -21.569
ltibia 39.8829
lfoot 11.5111 2.7159
ltoes -24.3389
231
root 17.1202 18.2712 22.3011 3.57561 8.23266 3.46154
lowerback 0.442084 -0.584345 -3.02908
upperback 0.219653 -0.790543 0.557373
thorax 0.0262123 -0.398556 2.27236
lowerneck -9.51788 -5.25266 -4.66302
upperneck 9.67591 -6.77739 3.19452
head 4.72676 -3.30822 1.26359
rclavicle -1.35671e-014 1.86858e-014
rhumerus 3.3351 -13.007 -80.9591
rradius 37.9486
rwrist -14.6309
rhand -17.0712 31.1582
rfingers 7.12502
rthumb 9.16666 1.37744
lclavicle -1.35671e-014 1.86858e-014
lhumerus -46.061 34.1866 65.2457
lradius 12.1645
lwrist -13.1005
lhand -18.2534 21.0035
lfingers 7.12502
lthumb 8.02581 50.8312
rfemur -36.3264 10.8094 14.4235
rtibia 36.9806
rfoot -2.24842 -4.92708
rtoes 9.97357
lfemur 7.9347 2.48595 -21.2561
ltibia 42.6508
lfoot 13.3353 2.7844
ltoes -25.7765
232
root 17.1017 18.28 22.4629 2.88339 8.19727 3.3333
lowerback 1.37501 -0.656205 -3.12418
upperback 0.403223 -0.914695 0.641303
thorax -0.297899 -0.457708 2.42353
lowerneck -9.31577 -5.11626 -4.44082
upperneck 9.30957 -6.62848 3.23307
head 4.56822 -3.22803 1.26115
rclavicle 1.94064e-014 0
rhumerus 2.15438 -13.4368 -81.4375
rradius 37.1148
rwrist -14.4714
rhand -16.7402 31.4195
rfingers 7.12502
rthumb 9.48601 1.65302
lclavicle 1.94064e-014 0
lhumerus -44.3095 33.4625 67.2814
lradius 12.396
lwrist -11.2026
lhand -19.4303 20.5526
lfingers 7.12502
lthumb 6.88976 50.4205
rfemur -35.1241 11.1506 15.0015
rtibia 37.4833
rfoot -3.10136 -5.02332
rtoes 8.55308
lfemur 6.9011 2.0346 -21.1074
ltibia 45.3451
lfoot 14.3494 2.38133
ltoes -26.3811
233
root 17.0975 18.2903 22.6329 2.50113 8.04108 3.87651
lowerback 1.90497 -0.688698 -3.64425
upperback 0.485884 -0.985192 0.476225
thorax -0.499463 -0.49017 2.55412
lowerneck -9.2209 -4.97077 -4.42201
upperneck 9.36041 -6.45643 3.37194
head 4.56555 -3.13573 1.31518
rclavicle 2.32578e-014 -1.43125e-014
rhumerus 0.0343574 -13.1871 -81.5033
rradius 37.1611
rwrist -14.8423
rhand -17.2791 30.3932
rfingers 7.12502
rthumb 8.96599 0.603754
lclavicle 2.32578e-014 -1.43125e-014
lhumerus -42.3746 31.7557 69.9441
lradius 12.8721
lwrist -8.60774
lhand -20.6743 20.7487
lfingers 7.12502
lthumb 5.68881 50.6524
rfemur -34.2037 11.4033 14.7073
rtibia 37.7832
rfoot -3.97464 -4.93318
rtoes 6.28943
lfemur 5.71298 1.52506 -21.89
ltibia 47.8658
lfoot 14.4151 1.81678
ltoes -25.6567
